<svg xmlns="http://www.w3.org/2000/svg" viewBox="0 0 32 32" width="800px" height="800px">
  <!-- Square background -->
  <g fill="#88DF95">
    <path d="M9.382 8.675h13.943v13.943L32 31.293V0H.707zM22.618 23.325H8.675V9.382L0 .707V32h31.293z"></path>
  </g>
  <!-- Shield with changed color -->
  <path transform="scale(1.3)"  fill="#0152cb" d="M19.63,3.65a1,1,0,0,0-.84-.2,8,8,0,0,1-6.22-1.27,1,1,0,0,0-1.14,0A8,8,0,0,1,5.21,3.45a1,1,0,0,0-.84.2A1,1,0,0,0,4,4.43v7.45a9,9,0,0,0,3.77,7.33l3.65,2.6a1,1,0,0,0,1.16,0l3.65-2.6A9,9,0,0,0,20,11.88V4.43A1,1,0,0,0,19.63,3.65ZM1d8,11.88a7,7,0,0,1-2.93,5.7L12,19.77,8.93,17.58A7,7,0,0,1,6,11.88V5.58a10,10,0,0,0,6-1.39,10,10,0,0,0,6,1.39Z"/>
</svg>
